# xmcd
#
# Track frame offsets: 
#        150
#        12639
#        24091
#        38192
#        49704
#        67202
#        82947
#        99170
#        114759
#        129023
#
# Disc length: 1951 seconds
#
# Revision: 0
# Processed by: cddbd v1.5.2PL0 Copyright (c) Steve Scherf et al.
# Submitted via: ExactAudioCopy v0.99pb4
#
DISCID=6c079d0a
DTITLE=Gene Watson - Honky Tonk Crazy
DYEAR=1989
DGENRE=Country
TTITLE0=Honky Tonk Crazy
TTITLE1=Her Heart or Mine
TTITLE2=I Didn't Think of You at All
TTITLE3=Getting Used to Being Loved Again
TTITLE4=Nobody's Baby Tonight
TTITLE5=I Always Get It Right With You
TTITLE6=When She Touches Me
TTITLE7=Ashes to Ashes
TTITLE8=Everybody Needs a Hero
TTITLE9=You Took Her Off My Hands
EXTD=
EXTT0=
EXTT1=
EXTT2=
EXTT3=
EXTT4=
EXTT5=
EXTT6=
EXTT7=
EXTT8=
EXTT9=
PLAYORDER=
